<svg xmlns="http://www.w3.org/2000/svg" width="1008" height="530" viewBox="0 0 1008 530" fill="none">
<mask id="path-1-inside-1_2133_2466" fill="white">
<path d="M0 500C0 223.858 227.858 0 504 0V0C780.142 0 1008 223.858 1008 500V530H0V500Z"/>
</mask>
<path d="M0 500C0 223.858 227.858 0 504 0V0C780.142 0 1008 223.858 1008 500V530H0V500Z" fill="url(#paint0_linear_2133_2466)" fill-opacity="0.07"/>
<path d="M-3 500C-3 222.201 222.201 -3 500 -3H508C785.799 -3 1011 222.201 1011 500H1005C1005 225.514 782.486 3 508 3H500C225.514 3 3 225.514 3 500H-3ZM1008 530H0H1008ZM-3 530V500C-3 222.201 222.201 -3 500 -3V3C225.514 3 3 225.514 3 500V530H-3ZM508 -3C785.799 -3 1011 222.201 1011 500V530H1005V500C1005 225.514 782.486 3 508 3V-3Z" fill="url(#paint1_linear_2133_2466)" mask="url(#path-1-inside-1_2133_2466)"/>
<defs>
<linearGradient id="paint0_linear_2133_2466" x1="504" y1="0" x2="504" y2="530" gradientUnits="userSpaceOnUse">
<stop stop-color="white"/>
<stop offset="1" stop-color="white" stop-opacity="0"/>
</linearGradient>
<linearGradient id="paint1_linear_2133_2466" x1="504" y1="0" x2="504" y2="530" gradientUnits="userSpaceOnUse">
<stop stop-color="#B3D0F2"/>
<stop offset="1" stop-color="#B3D0F2" stop-opacity="0"/>
</linearGradient>
</defs>
</svg>