<svg width="16" height="16" viewBox="0 0 16 16" fill="none" xmlns="http://www.w3.org/2000/svg">
<g clip-path="url(#clip0_101_991)">
<path d="M8 1.43396C10.1132 1.43396 10.4151 1.43396 11.2453 1.50943C12 1.50943 12.4528 1.66038 12.7547 1.81132C13.1321 1.96226 13.3585 2.11321 13.6604 2.41509C13.9623 2.71698 14.1132 2.9434 14.2642 3.32076C14.3396 3.62264 14.4906 4 14.566 4.83019C14.566 5.66038 14.6415 5.96227 14.6415 8.07547C14.6415 10.1887 14.6415 10.4906 14.566 11.3208C14.566 12.0755 14.4151 12.5283 14.2642 12.8302C14.1132 13.2075 13.9623 13.434 13.6604 13.7359C13.3585 14.0377 13.1321 14.1887 12.7547 14.3396C12.4528 14.4151 12.0755 14.566 11.2453 14.6415C10.4151 14.6415 10.1132 14.717 8 14.717C5.88679 14.717 5.58491 14.717 4.75472 14.6415C4 14.6415 3.54717 14.4906 3.24528 14.3396C2.86792 14.1887 2.64151 14.0377 2.33962 13.7359C2.03774 13.434 1.88679 13.2075 1.73585 12.8302C1.66038 12.5283 1.50943 12.1509 1.43396 11.3208C1.43396 10.4906 1.35849 10.1887 1.35849 8.07547C1.35849 5.96227 1.35849 5.66038 1.43396 4.83019C1.43396 4.07547 1.58491 3.62264 1.73585 3.32076C1.88679 2.9434 2.03774 2.71698 2.33962 2.41509C2.64151 2.11321 2.86792 1.96226 3.24528 1.81132C3.54717 1.66038 4 1.50943 4.75472 1.50943C5.58491 1.43396 5.88679 1.43396 8 1.43396ZM8 0C5.81132 0 5.58491 0 4.67924 0.0754717C3.84906 0.0754717 3.24528 0.226415 2.71698 0.45283C2.26415 0.603774 1.81132 0.90566 1.35849 1.35849C0.90566 1.81132 0.603774 2.26415 0.45283 2.79245C0.226415 3.24528 0.0754717 3.84906 0.0754717 4.67925C0 5.58491 0 5.81132 0 8C0 10.1887 0 10.4151 0.0754717 11.3208C0.0754717 12.1509 0.226415 12.7547 0.45283 13.283C0.679245 13.8113 0.90566 14.2642 1.35849 14.717C1.81132 15.1698 2.26415 15.4717 2.79245 15.6226C3.32075 15.8491 3.84906 15.9245 4.75472 16C5.58491 16 5.88679 16.0755 8.07547 16.0755C10.2642 16.0755 10.4906 16.0755 11.3962 16C12.2264 16 12.8302 15.8491 13.3585 15.6226C13.8868 15.3962 14.3396 15.1698 14.7925 14.717C15.2453 14.2642 15.5472 13.8113 15.6981 13.283C15.9245 12.7547 16 12.2264 16.0755 11.3208C16.0755 10.4906 16.1509 10.1887 16.1509 8C16.1509 5.81132 16.1509 5.58491 16.0755 4.67925C16.0755 3.84906 15.9245 3.24528 15.6981 2.71698C15.3962 2.26415 15.0943 1.81132 14.6415 1.35849C14.1887 0.90566 13.7358 0.603774 13.2075 0.45283C12.6792 0.226415 12.1509 0.150943 11.2453 0.0754717C10.4151 0 10.1887 0 8 0Z" fill="#60A6E7"/>
<path d="M8 3.92383C5.73585 3.92383 3.92453 5.73515 3.92453 7.9993C3.92453 10.2635 5.73585 12.0748 8 12.0748C10.2642 12.0748 12.0755 10.2635 12.0755 7.9993C12.0755 5.73515 10.2642 3.92383 8 3.92383ZM8 10.6408C6.56604 10.6408 5.35849 9.43326 5.35849 7.9993C5.35849 6.56534 6.56604 5.35779 8 5.35779C9.43396 5.35779 10.6415 6.56534 10.6415 7.9993C10.6415 9.50873 9.43396 10.6408 8 10.6408Z" fill="#60A6E7"/>
<path d="M13.2075 3.69793C13.2075 4.22623 12.7547 4.67906 12.2264 4.67906C11.6981 4.67906 11.2453 4.22623 11.2453 3.69793C11.2453 3.16963 11.6981 2.7168 12.2264 2.7168C12.8302 2.79227 13.2075 3.16963 13.2075 3.69793Z" fill="#60A6E7"/>
</g>
<defs>
<clipPath id="clip0_101_991">
<rect width="16" height="16" fill="white"/>
</clipPath>
</defs>
</svg>
