<svg width="17" height="16" viewBox="0 0 17 16" fill="none" xmlns="http://www.w3.org/2000/svg">
<g clip-path="url(#clip0_101_999)">
<path d="M4.26452 5.33203H1.11966V15.9916H4.26452V5.33203Z" fill="#60A6E7"/>
<path d="M2.67651 3.941C3.70131 3.941 4.53397 3.05999 4.53397 1.9705C4.53397 0.881008 3.70131 0 2.67651 0C1.65171 0 0.819061 0.881008 0.819061 1.9705C0.819061 3.05999 1.65171 3.941 2.67651 3.941Z" fill="#60A6E7"/>
<path d="M9.29308 10.4053C9.29308 8.90566 9.95282 8.01118 11.2082 8.01118C12.3611 8.01118 12.9183 8.86526 12.9183 10.4053V16.0008H16.0439V9.24862C16.0439 6.39039 14.5003 5.01172 12.3482 5.01172C10.1962 5.01172 9.28668 6.77374 9.28668 6.77374V5.33453H6.26993V15.9941H9.28668V10.3986L9.29308 10.4053Z" fill="#60A6E7"/>
</g>
<defs>
<clipPath id="clip0_101_999">
<rect width="16" height="16" fill="white" transform="translate(0.647919)"/>
</clipPath>
</defs>
</svg>
