<svg width="19" height="20" viewBox="0 0 19 20" fill="none" xmlns="http://www.w3.org/2000/svg">
<path d="M14.198 15.3336C16.2811 13.9247 17.6479 11.5806 17.6479 8.92018C17.6479 4.60759 14.0661 1.11133 9.64792 1.11133C5.22976 1.11133 1.64792 4.60759 1.64792 8.92018C1.64792 11.5806 3.01477 13.9247 5.09781 15.3336M6.41207 11.778C5.66458 11.0225 5.20347 10.0079 5.20347 8.88959C5.20347 6.55765 7.19352 4.66688 9.64792 4.66688C12.1023 4.66688 14.0924 6.55765 14.0924 8.88959C14.0924 10.0087 13.6313 11.0225 12.8838 11.778M9.64792 18.8891C8.66608 18.8891 7.87014 18.0932 7.87014 17.1113V15.3336C7.87014 14.3517 8.66608 13.5558 9.64792 13.5558C10.6298 13.5558 11.4257 14.3517 11.4257 15.3336V17.1113C11.4257 18.0932 10.6298 18.8891 9.64792 18.8891ZM10.5368 9.11133C10.5368 9.60225 10.1388 10.0002 9.64792 10.0002C9.157 10.0002 8.75903 9.60225 8.75903 9.11133C8.75903 8.62041 9.157 8.22244 9.64792 8.22244C10.1388 8.22244 10.5368 8.62041 10.5368 9.11133Z" stroke="#60A6E7" stroke-width="2" stroke-linecap="round" stroke-linejoin="round"/>
</svg>
