<svg width="19" height="16" viewBox="0 0 19 16" fill="none" xmlns="http://www.w3.org/2000/svg">
<path d="M17.313 4.15639C17.2266 3.81125 17.0507 3.49502 16.8029 3.23964C16.5552 2.98427 16.2445 2.79878 15.9021 2.70192C14.6513 2.39648 9.64792 2.39648 9.64792 2.39648C9.64792 2.39648 4.64454 2.39648 3.3937 2.73101C3.05135 2.82787 2.74062 3.01335 2.49291 3.26873C2.24519 3.52411 2.06925 3.84034 1.98286 4.18548C1.75394 5.45491 1.64196 6.74267 1.64833 8.03255C1.64017 9.33216 1.75216 10.6297 1.98286 11.9087C2.0781 12.2431 2.25798 12.5473 2.50512 12.7919C2.75226 13.0365 3.05831 13.2132 3.3937 13.305C4.64454 13.6395 9.64792 13.6395 9.64792 13.6395C9.64792 13.6395 14.6513 13.6395 15.9021 13.305C16.2445 13.2082 16.5552 13.0227 16.8029 12.7673C17.0507 12.5119 17.2266 12.1957 17.313 11.8505C17.5401 10.5907 17.6521 9.31273 17.6475 8.03255C17.6557 6.73295 17.5437 5.43538 17.313 4.15639Z" stroke="#60A6E7" stroke-width="1.8" stroke-linecap="round" stroke-linejoin="round"/>
<path d="M7.84792 5.96875C7.84792 5.58692 7.84792 5.39601 7.92771 5.28943C7.99725 5.19654 8.10369 5.13843 8.21942 5.13017C8.35223 5.12068 8.51282 5.22392 8.834 5.4304L11.9883 7.45813C12.267 7.6373 12.4063 7.72688 12.4545 7.8408C12.4965 7.94033 12.4965 8.05264 12.4545 8.15217C12.4063 8.26608 12.267 8.35567 11.9883 8.53484L8.834 10.5626C8.51282 10.769 8.35223 10.8723 8.21942 10.8628C8.10369 10.8545 7.99725 10.7964 7.92771 10.7035C7.84792 10.597 7.84792 10.406 7.84792 10.0242V5.96875Z" stroke="#60A6E7" stroke-width="1.8" stroke-linecap="round" stroke-linejoin="round"/>
</svg>
