<svg xmlns="http://www.w3.org/2000/svg" width="112" height="27" viewBox="0 0 112 27" fill="none">
<path d="M0.399986 18.7496V7.50195H7.96207V9.80622H3.02125V11.9195H7.69217V14.0965H3.02125V16.4313H8.24851V18.7509H0.399986V18.7496Z" fill="white"/>
<path d="M33.6209 15.5085H27.8857C27.9647 16.3819 28.8393 17.0019 29.7763 17.0019C30.6025 17.0019 31.1741 16.6518 31.5242 16.1756L33.3358 17.3189C32.5885 18.3997 31.3498 19.0031 29.7457 19.0031C27.3625 19.0031 25.393 17.4933 25.393 14.8249C25.393 12.2355 27.2683 10.583 29.6668 10.583C32.0016 10.583 33.6388 12.1871 33.6388 14.8886C33.6362 15.0961 33.6362 15.3176 33.6209 15.5085ZM31.2377 13.8879C31.2377 13.0617 30.7132 12.378 29.6808 12.378C28.6801 12.378 27.9494 13.077 27.8857 13.8879H31.2377Z" fill="white"/>
<path d="M40.7056 13.3952C40.4192 13.0146 39.8476 12.76 39.3231 12.76C38.2269 12.76 37.4962 13.697 37.4962 14.7931C37.4962 15.8892 38.2117 16.8109 39.3549 16.8109C39.8794 16.8109 40.451 16.6047 40.7693 16.2227L42.2155 17.986C41.5637 18.6212 40.4523 19.0031 39.2925 19.0031C36.7985 19.0031 34.8596 17.4143 34.8596 14.7931C34.8596 12.2189 36.8138 10.583 39.276 10.583C40.4039 10.583 41.5955 11.012 42.2155 11.6473L40.7056 13.3952Z" fill="white"/>
<path d="M48.4587 18.7491V17.653H48.4268C48.0615 18.3519 47.1563 18.9719 46.0436 18.9719C43.915 18.9719 43.1678 17.3194 43.1678 15.7306V10.8369H45.789V15.1259C45.789 16.0158 46.0118 16.8102 46.9641 16.8102C47.8692 16.8102 48.3619 16.0158 48.3619 15.1106V10.8369H50.9679V18.7491H48.4587Z" fill="white"/>
<path d="M55.8311 12.7915V15.81C55.8311 16.5407 56.0691 16.9227 56.8164 16.9227C57.071 16.9227 57.388 16.8755 57.579 16.7953L57.6108 18.7024C57.2607 18.8297 56.6573 18.9405 56.1009 18.9405C53.9876 18.9405 53.2887 17.8125 53.2887 16.1283V12.7915H52.0182V10.8373H53.2734V8.75586H55.8311V10.8373H57.6898V12.7915H55.8311Z" fill="white"/>
<path d="M60.2474 9.74117C59.4059 9.74117 58.754 9.08935 58.754 8.3115C58.754 7.54893 59.4059 6.88184 60.2474 6.88184C61.0736 6.88184 61.7407 7.5171 61.7407 8.3115C61.7407 9.12118 61.0736 9.74117 60.2474 9.74117ZM58.945 18.7495V10.8373H61.551V18.7495H58.945Z" fill="white"/>
<path d="M68.5084 18.7491H65.6961L62.5822 10.8369H65.4581L67.1258 15.9687H67.1729L68.8406 10.8369H71.621L68.5084 18.7491Z" fill="white"/>
<path d="M80.4562 15.5085H74.721C74.7999 16.3819 75.6745 17.0019 76.6115 17.0019C77.4377 17.0019 78.0093 16.6518 78.3594 16.1756L80.171 17.3189C79.4237 18.3997 78.185 19.0031 76.5809 19.0031C74.1977 19.0031 72.2283 17.4933 72.2283 14.8249C72.2283 12.2355 74.1035 10.583 76.502 10.583C78.8381 10.583 80.474 12.1871 80.474 14.8886C80.4715 15.0961 80.4715 15.3176 80.4562 15.5085ZM78.073 13.8879C78.073 13.0617 77.5485 12.378 76.516 12.378C75.5154 12.378 74.7846 13.077 74.721 13.8879H78.073Z" fill="white"/>
<path d="M83.6975 7.50195H86.7006C88.8929 7.50195 90.1647 8.51914 90.1647 10.2034C90.1647 12.4122 88.4015 13.5236 85.891 13.5236H83.7624L82.8407 18.7509H81.7127L83.6975 7.50195ZM83.919 12.5854H85.9839C87.8744 12.5854 89.0189 11.8075 89.0189 10.3295C89.0189 8.9469 88.0819 8.47077 86.6039 8.47077H84.651L83.919 12.5854Z" fill="white" stroke="white" stroke-width="0.590265" stroke-miterlimit="10"/>
<path d="M91.355 11.315H92.3722C92.3251 11.7122 92.2615 12.2685 92.1978 12.5855H92.2296C92.7694 11.7275 93.6593 11.124 94.7083 11.124C94.9782 11.124 95.1844 11.1393 95.4072 11.203L95.1526 12.2201C95.0418 12.173 94.7083 12.1247 94.4219 12.1247C93.2774 12.1247 92.1812 12.9509 91.8324 14.9369L91.1653 18.7498H90.101L91.1182 12.9509C91.1959 12.5537 91.3079 11.8229 91.355 11.315Z" fill="white" stroke="white" stroke-width="0.590265" stroke-miterlimit="10"/>
<path d="M95.406 15.7141C95.406 13.2201 97.2494 11.1221 99.8223 11.1221C101.84 11.1221 103.254 12.4244 103.254 14.3315C103.254 16.8738 101.428 18.9388 98.8382 18.9388C96.8356 18.94 95.406 17.6211 95.406 15.7141ZM99.7599 12.0132C97.9012 12.0132 96.5352 13.6975 96.5352 15.6517C96.5352 17.0177 97.4251 18.0349 98.9018 18.0349C100.792 18.0349 102.143 16.3671 102.143 14.3964C102.142 13.0457 101.253 12.0132 99.7599 12.0132Z" fill="white" stroke="white" stroke-width="0.590265" stroke-miterlimit="10"/>
<path d="M109.958 12.9506C109.672 12.3943 109.053 12.0136 108.227 12.0136C107.465 12.0136 106.464 12.3319 106.464 13.2205C106.464 14.0149 107.02 14.2058 107.942 14.4757C109.388 14.8882 110.183 15.4764 110.183 16.6527C110.183 18.2733 108.61 18.9404 107.307 18.9404C106.067 18.9404 104.892 18.4796 104.272 17.526L105.193 16.9226C105.543 17.526 106.321 18.0353 107.258 18.0353C108.18 18.0353 109.117 17.6699 109.117 16.7647C109.117 15.9703 108.482 15.6521 107.305 15.2714C106.416 14.985 105.43 14.5407 105.43 13.302C105.43 11.7768 106.955 11.125 108.289 11.125C109.434 11.125 110.403 11.6177 110.8 12.3484L109.958 12.9506Z" fill="white" stroke="white" stroke-width="0.590265" stroke-miterlimit="10"/>
<path d="M18.4764 8.97852V18.1179C18.4764 18.8436 18.8634 19.3656 19.7813 19.8773C20.9984 20.5559 25.4732 21.9754 27.0901 22.4884C28.0398 22.7901 28.7718 21.9219 27.6642 20.6616C26.7425 19.6113 22.6763 15.1262 20.5935 12.8996C19.556 11.7895 18.4764 10.8716 18.4764 8.97852Z" fill="url(#paint0_linear_2019_2527)"/>
<path d="M18.4764 13.0195V18.1169C18.4764 18.8426 18.8634 19.3646 19.7813 19.8763C20.9984 20.5549 25.4732 21.9744 27.0901 22.4874C27.7126 22.6847 28.2409 22.3805 28.2206 21.7936C28.0932 22.658 27.0353 22.0749 26.2129 21.46C24.9016 20.4798 22.9564 18.8502 20.5935 16.9406C19.4121 15.9858 18.4764 14.9139 18.4764 13.0195Z" fill="url(#paint1_linear_2019_2527)"/>
<path d="M18.4764 18.1173V8.9779C18.4764 8.01927 19.0035 6.86459 20.5223 6.0129C22.6801 4.80221 27.6769 1.91614 30.5057 0.506843C32.5083 -0.49125 33.2543 0.226765 31.4682 2.24077C30.1798 3.69336 23.9023 10.6978 21.104 13.9149C20.027 15.1523 18.6954 16.3783 18.4764 18.1173Z" fill="url(#paint2_linear_2019_2527)"/>
<path d="M17.2377 8.55176V17.6912C17.2377 18.6498 16.7107 19.8032 15.1919 20.6562C13.034 21.8669 8.03718 24.7529 5.2084 26.1622C3.20585 27.1603 2.45982 26.4423 4.24595 24.4283C5.53431 22.9757 11.8119 15.9713 14.6101 12.7542C15.6884 11.5168 17.02 10.2908 17.2377 8.55176Z" fill="url(#paint3_linear_2019_2527)"/>
<path d="M17.2377 17.6911V8.55171C17.2377 7.82606 16.8507 7.3041 15.9328 6.79232C14.7157 6.11377 10.2409 4.69429 8.62534 4.18124C7.67563 3.87952 6.94361 4.74776 8.05118 6.0081C8.97289 7.05839 13.0391 11.5434 15.1219 13.7701C16.1594 14.8802 17.2377 15.7968 17.2377 17.6911Z" fill="url(#paint4_linear_2019_2527)"/>
<path d="M17.2377 13.649V8.55157C17.2377 7.82592 16.8507 7.30396 15.9328 6.79218C14.7157 6.11363 10.2409 4.69415 8.62534 4.1811C8.0028 3.98377 7.47448 4.28804 7.49485 4.87493C7.62216 4.01051 8.68008 4.59358 9.50249 5.20847C10.8138 6.18874 12.759 7.81828 15.1219 9.7279C16.3033 10.6827 17.2377 11.7546 17.2377 13.649Z" fill="url(#paint5_linear_2019_2527)"/>
<path d="M18.4764 13.8956V8.97767C18.4764 8.01904 19.0035 6.86436 20.5223 6.01267C22.6801 4.80198 27.6769 1.91591 30.5057 0.506614C31.8934 -0.184667 32.6776 -0.052268 32.4344 0.763775C32.5032 0.14124 31.8959 0.271093 31.3447 0.70394C29.7801 1.93246 23.9608 6.37295 20.8774 9.08843C18.9806 10.7587 18.6954 12.1565 18.4764 13.8956Z" fill="url(#paint6_linear_2019_2527)"/>
<path d="M17.239 8.55176V17.6912C17.239 18.6498 16.7119 19.8045 15.1932 20.6562C13.0353 21.8669 8.03846 24.7529 5.20968 26.1622C3.20713 27.1603 2.4611 26.4423 4.24723 24.4283C5.53559 22.9757 11.8131 15.9713 14.6114 12.7542C15.6884 11.5168 17.02 10.2908 17.239 8.55176Z" fill="url(#paint7_linear_2019_2527)"/>
<path d="M17.239 11.9971V17.6903C17.239 18.6489 16.7119 19.8036 15.1931 20.6553C13.0353 21.866 8.03845 24.752 5.20967 26.1613C3.82202 26.8526 3.0378 26.7202 3.28096 25.9042C3.21221 26.5267 3.81947 26.3968 4.37071 25.964C5.93533 24.7355 12.4268 19.6203 15.486 16.878C16.7081 15.7819 17.239 14.1664 17.239 11.9971Z" fill="url(#paint8_linear_2019_2527)"/>
<defs>
<linearGradient id="paint0_linear_2019_2527" x1="29.6171" y1="22.9895" x2="16.6597" y2="12.3681" gradientUnits="userSpaceOnUse">
<stop stop-color="#FCE152"/>
<stop offset="0.0608" stop-color="#FBDC58"/>
<stop offset="0.1446" stop-color="#F9D166"/>
<stop offset="0.2419" stop-color="#F6BD75"/>
<stop offset="0.3492" stop-color="#F3A082"/>
<stop offset="0.4648" stop-color="#EF7B8C"/>
<stop offset="0.5857" stop-color="#EC3F8F"/>
<stop offset="0.6128" stop-color="#EC278F"/>
<stop offset="0.6582" stop-color="#DF3091"/>
<stop offset="0.8915" stop-color="#AC4B9B"/>
<stop offset="1" stop-color="#98519F"/>
</linearGradient>
<linearGradient id="paint1_linear_2019_2527" x1="28.2792" y1="23.9233" x2="17.2679" y2="14.8973" gradientUnits="userSpaceOnUse">
<stop stop-color="#FDDA32"/>
<stop offset="0.0631" stop-color="#FBD33D"/>
<stop offset="0.1753" stop-color="#F8BE54"/>
<stop offset="0.3237" stop-color="#F39B68"/>
<stop offset="0.5003" stop-color="#EF6B73"/>
<stop offset="0.6522" stop-color="#EC1D74"/>
<stop offset="0.79" stop-color="#C43C84"/>
<stop offset="1" stop-color="#8153A0"/>
</linearGradient>
<linearGradient id="paint2_linear_2019_2527" x1="17.559" y1="17.0618" x2="27.2999" y2="-6.42261" gradientUnits="userSpaceOnUse">
<stop stop-color="#FDDA32"/>
<stop offset="0.059" stop-color="#FBD33D"/>
<stop offset="0.1639" stop-color="#F8BE54"/>
<stop offset="0.3027" stop-color="#F39B68"/>
<stop offset="0.4678" stop-color="#EF6B73"/>
<stop offset="0.6099" stop-color="#EC1D74"/>
<stop offset="0.7645" stop-color="#C43C84"/>
<stop offset="1" stop-color="#8153A0"/>
</linearGradient>
<linearGradient id="paint3_linear_2019_2527" x1="18.5119" y1="9.04282" x2="10.1562" y2="29.1875" gradientUnits="userSpaceOnUse">
<stop stop-color="#8153A0"/>
<stop offset="0.2594" stop-color="#C43C84"/>
<stop offset="0.4297" stop-color="#EC1D74"/>
<stop offset="0.7108" stop-color="#F2926B"/>
<stop offset="0.9091" stop-color="#F9C64C"/>
<stop offset="1" stop-color="#FDDA32"/>
</linearGradient>
<linearGradient id="paint4_linear_2019_2527" x1="7.02357" y1="4.43145" x2="17.8971" y2="13.3446" gradientUnits="userSpaceOnUse">
<stop stop-color="#8153A0"/>
<stop offset="0.6555" stop-color="#55A0D8"/>
<stop offset="1" stop-color="#87D3EA"/>
</linearGradient>
<linearGradient id="paint5_linear_2019_2527" x1="8.07491" y1="3.26363" x2="19.0861" y2="12.2897" gradientUnits="userSpaceOnUse">
<stop stop-color="#A4519F"/>
<stop offset="0.5496" stop-color="#60A6DB"/>
<stop offset="1" stop-color="#90D5E1"/>
</linearGradient>
<linearGradient id="paint6_linear_2019_2527" x1="17.4101" y1="12.4502" x2="33.8608" y2="-4.25621" gradientUnits="userSpaceOnUse">
<stop stop-color="#FCE152"/>
<stop offset="0.0535" stop-color="#FBDC58"/>
<stop offset="0.1272" stop-color="#F9D166"/>
<stop offset="0.2127" stop-color="#F6BD75"/>
<stop offset="0.3071" stop-color="#F3A082"/>
<stop offset="0.4088" stop-color="#EF7B8C"/>
<stop offset="0.515" stop-color="#EC3F8F"/>
<stop offset="0.5389" stop-color="#EC278F"/>
<stop offset="0.593" stop-color="#DF3091"/>
<stop offset="0.8708" stop-color="#AC4B9B"/>
<stop offset="1" stop-color="#98519F"/>
</linearGradient>
<linearGradient id="paint7_linear_2019_2527" x1="19.5617" y1="10.0367" x2="2.33252" y2="32.4705" gradientUnits="userSpaceOnUse">
<stop stop-color="#A4519F"/>
<stop offset="0.5496" stop-color="#60A6DB"/>
<stop offset="1" stop-color="#90D5E1"/>
</linearGradient>
<linearGradient id="paint8_linear_2019_2527" x1="18.6865" y1="13.83" x2="3.31765" y2="29.4377" gradientUnits="userSpaceOnUse">
<stop stop-color="#8153A0"/>
<stop offset="0.6555" stop-color="#55A0D8"/>
<stop offset="1" stop-color="#87D3EA"/>
</linearGradient>
</defs>
</svg>