<svg width="34" height="34" viewBox="0 0 34 34" fill="none" xmlns="http://www.w3.org/2000/svg">
<path d="M3.52905 17.0003L16.5829 23.5273C16.7605 23.6161 16.8493 23.6605 16.9425 23.6779C17.025 23.6934 17.1096 23.6934 17.1921 23.6779C17.2852 23.6605 17.374 23.6161 17.5516 23.5273L30.6055 17.0003M3.52905 23.7694L16.5829 30.2964C16.7605 30.3852 16.8493 30.4296 16.9425 30.4471C17.025 30.4625 17.1096 30.4625 17.1921 30.4471C17.2852 30.4296 17.374 30.3852 17.5516 30.2964L30.6055 23.7694M3.52905 10.2312L16.5829 3.70427C16.7605 3.61547 16.8493 3.57107 16.9425 3.5536C17.025 3.53812 17.1096 3.53812 17.1921 3.5536C17.2852 3.57107 17.374 3.61547 17.5516 3.70427L30.6055 10.2312L17.5516 16.7581C17.374 16.8469 17.2852 16.8913 17.1921 16.9088C17.1096 16.9243 17.025 16.9243 16.9425 16.9088C16.8493 16.8913 16.7605 16.8469 16.5829 16.7581L3.52905 10.2312Z" stroke="white" stroke-width="3" stroke-linecap="round" stroke-linejoin="round"/>
</svg>
