<svg xmlns="http://www.w3.org/2000/svg" width="88" height="27" viewBox="0 0 88 27" fill="none">
<mask id="mask0_101_1062" style="mask-type:luminance" maskUnits="userSpaceOnUse" x="0" y="0" width="88" height="27">
<path d="M87.1135 0H0.886505V26.6681H87.1135V0Z" fill="white"/>
</mask>
<g mask="url(#mask0_101_1062)">
<path d="M64.6601 21.1829C64.8409 21.343 64.9835 21.5417 65.0772 21.7644C65.171 21.987 65.2135 22.2278 65.2016 22.4691C65.2114 22.7134 65.1681 22.957 65.0746 23.1829C64.9811 23.4089 64.8396 23.6119 64.6601 23.7778C64.2672 24.1192 63.7584 24.2968 63.2385 24.2742C62.979 24.2867 62.7195 24.2472 62.4754 24.158C62.2313 24.0689 62.0075 23.932 61.817 23.7553C61.6331 23.5965 61.487 23.3986 61.3894 23.176C61.2918 22.9535 61.2451 22.712 61.2528 22.4691C61.2525 22.2273 61.3024 21.9881 61.3996 21.7667C61.4967 21.5452 61.6388 21.3464 61.817 21.1829C62.2211 20.8615 62.7222 20.6865 63.2385 20.6865C63.7549 20.6865 64.256 20.8615 64.6601 21.1829Z" fill="#51ACA8"/>
<path d="M86.4345 1.93486C86.6154 2.09497 86.758 2.29369 86.8517 2.51631C86.9455 2.73894 86.988 2.97978 86.9761 3.22104C86.9859 3.46538 86.9426 3.70894 86.8491 3.93489C86.7556 4.16084 86.6141 4.3638 86.4345 4.52977C86.0417 4.87111 85.5329 5.04878 85.013 5.02617C84.7534 5.03859 84.494 4.99909 84.2499 4.90997C84.0058 4.82085 83.782 4.68392 83.5914 4.50719C83.4076 4.34837 83.2615 4.15047 83.1639 3.92795C83.0663 3.70542 83.0196 3.46391 83.0273 3.22104C83.027 2.97926 83.077 2.74004 83.1741 2.51862C83.2712 2.29719 83.4133 2.0984 83.5914 1.9349C83.9955 1.61347 84.4966 1.43848 85.013 1.43848C85.5293 1.43848 86.0304 1.61343 86.4345 1.93486Z" fill="#51ACA8"/>
<path d="M26.7746 7.37371H29.4147V10.984H26.7746V18.6107C26.7269 19.0734 26.847 19.5379 27.1131 19.9194C27.2905 20.0659 27.4966 20.1736 27.718 20.2358C27.9395 20.298 28.1716 20.3132 28.3993 20.2805C28.8147 20.2849 29.2298 20.2547 29.6403 20.1902V23.9132C28.7285 24.2037 27.7766 24.3484 26.8197 24.342C26.1368 24.4015 25.449 24.3223 24.7975 24.109C24.146 23.8957 23.5444 23.5528 23.029 23.101C22.1289 22.0342 21.6833 20.6568 21.7879 19.265V10.9839H19.7571V7.37371H21.7879C21.7802 6.83152 21.88 6.29317 22.0813 5.78971C22.2827 5.28624 22.5818 4.82763 22.9613 4.44031C23.3202 4.05143 23.7566 3.74208 24.2424 3.53222C24.7282 3.32236 25.2526 3.21663 25.7818 3.22186H26.7746V7.37371Z" fill="white"/>
<path d="M40.1553 22.6049C39.7 23.1786 39.1146 23.6355 38.4475 23.9376C37.7803 24.2398 37.0508 24.3785 36.3193 24.3424C35.2466 24.3597 34.1899 24.0802 33.2661 23.5346C32.3423 22.9891 31.5872 22.1988 31.0844 21.251C30.7401 20.2233 30.7223 19.1143 31.0334 18.076C31.3445 17.0378 31.9692 16.1212 32.8219 15.4521C34.5075 14.4457 36.4585 13.9736 38.4178 14.0983H39.9522V13.2408C39.9522 11.7516 39.3204 10.9844 38.0568 10.9844C37.8144 10.9486 37.567 10.9699 37.3344 11.0468C37.1018 11.1237 36.8904 11.254 36.7171 11.4272C36.5439 11.6005 36.4136 11.8119 36.3367 12.0445C36.2598 12.2771 36.2385 12.5245 36.2743 12.7669H31.31C31.2977 12.0131 31.4726 11.268 31.8192 10.5985C32.1658 9.92901 32.6731 9.35602 33.2957 8.93092C34.7606 7.88851 36.5313 7.36444 38.3275 7.44168C40.0675 7.34087 41.7845 7.87841 43.1563 8.95347C43.7495 9.47056 44.2195 10.1138 44.5319 10.8361C44.8442 11.5584 44.991 12.3415 44.9614 13.1279V20.3259C44.9176 21.5062 45.1494 22.6805 45.6383 23.7557V24.0039L43.4496 24.0265C42.8301 24.0436 42.2144 23.9253 41.6453 23.6798C41.0763 23.4342 40.5678 23.0674 40.1553 22.6049ZM39.0722 20.3485C39.4348 20.1214 39.7307 19.8021 39.9297 19.4233V16.8285H38.4855C36.7481 16.8285 35.8906 17.6182 35.8906 19.1977C35.8818 19.409 35.9196 19.6197 36.0015 19.8147C36.0835 20.0097 36.2074 20.1843 36.3645 20.3259C36.523 20.4686 36.7085 20.5781 36.91 20.6478C37.1116 20.7176 37.325 20.7462 37.5378 20.7321C38.0751 20.7501 38.6067 20.6172 39.0722 20.3485Z" fill="white"/>
<path d="M55.2733 19.8291C55.4756 19.6126 55.6302 19.3563 55.7274 19.0765C55.8246 18.7967 55.862 18.4996 55.8374 18.2044H60.4857C60.5101 19.0329 60.3554 19.857 60.0322 20.6202C59.709 21.3835 59.2248 22.068 58.6129 22.627C57.2777 23.8033 55.5394 24.4178 53.7615 24.3419C52.7364 24.3942 51.7122 24.2213 50.761 23.8354C49.8098 23.4494 48.9547 22.8598 48.2558 22.1079C46.8382 20.3535 46.1297 18.1314 46.2702 15.8802V15.6545C46.2434 14.1489 46.5436 12.6554 47.1502 11.2771C47.6937 10.0632 48.5901 9.0411 49.7225 8.34368C50.9359 7.64387 52.3159 7.28522 53.7164 7.30571C54.6174 7.25704 55.5191 7.38973 56.3679 7.69591C57.2167 8.00208 57.9955 8.47552 58.658 9.08817C58.6751 9.09054 58.691 9.09847 58.7031 9.11074C59.0904 9.51475 59.3437 10.0283 59.4285 10.5815C59.5133 11.1347 59.4254 11.7006 59.177 12.2021C58.9817 12.7179 58.6269 13.1579 58.1643 13.4582C57.7017 13.7585 57.1553 13.9034 56.6046 13.8718H55.8149C55.8639 13.1643 55.6466 12.4641 55.2056 11.9087C54.9999 11.6851 54.7481 11.5089 54.4677 11.3921C54.1872 11.2753 53.8847 11.2208 53.5811 11.2323C52.2949 11.2323 51.5503 12.0671 51.3246 13.7594C51.2495 14.494 51.2194 15.2325 51.2344 15.9708C51.1449 17.1449 51.3464 18.3229 51.8211 19.4005C52.0044 19.7171 52.2728 19.9759 52.596 20.1475C52.9191 20.319 53.2839 20.3964 53.6488 20.3708C53.9427 20.4053 54.2407 20.3747 54.5215 20.281C54.8022 20.1874 55.0589 20.0331 55.2733 19.8291Z" fill="white"/>
<path d="M75.6489 22.6048C75.1872 23.1769 74.5974 23.6323 73.927 23.9341C73.2567 24.236 72.5248 24.3758 71.7904 24.3422C70.7176 24.3596 69.661 24.0801 68.7372 23.5345C67.8133 22.989 67.0583 22.1987 66.5554 21.2509C66.2112 20.2232 66.1934 19.1141 66.5045 18.0759C66.8156 17.0377 67.4403 16.1211 68.2929 15.452C69.9785 14.4455 71.9296 13.9735 73.8889 14.0981H75.4232V13.2407C75.4232 11.7515 74.7914 10.9843 73.5278 10.9843C73.2855 10.9484 73.0381 10.9698 72.8054 11.0467C72.5728 11.1236 72.3614 11.2539 72.1882 11.4271C72.015 11.6004 71.8847 11.8118 71.8078 12.0444C71.7309 12.277 71.7095 12.5244 71.7454 12.7667H66.7811C66.7665 12.0157 66.9406 11.273 67.2875 10.6068C67.6345 9.9405 68.1431 9.37199 68.7668 8.95335C70.2317 7.91095 72.0024 7.3869 73.7986 7.46414C75.5386 7.36333 77.2555 7.90087 78.6274 8.97592C79.2206 9.49301 79.6906 10.1363 80.0029 10.8586C80.3153 11.5809 80.462 12.3639 80.4325 13.1503V20.3485C80.3887 21.5288 80.6205 22.7031 81.1094 23.7783L81.3125 24.0716L81.5156 24.2973C81.4028 24.2973 80.5002 24.2296 80.0489 24.1845C79.7781 24.1619 79.1238 24.1168 79.1238 24.1168C78.4732 24.1082 77.8308 23.97 77.2342 23.7104C76.6375 23.4508 76.0986 23.075 75.6489 22.6048ZM74.5432 20.3484C74.9058 20.1213 75.2017 19.802 75.4006 19.4232V16.8283H73.9566C72.2191 16.8283 71.3616 17.6181 71.3616 19.1976C71.3528 19.4089 71.3906 19.6196 71.4725 19.8146C71.5545 20.0096 71.6784 20.1842 71.8355 20.3258C71.994 20.4685 72.1795 20.578 72.381 20.6477C72.5826 20.7175 72.796 20.7461 73.0088 20.7319C73.5461 20.75 74.0776 20.6171 74.5432 20.3484Z" fill="white"/>
<path d="M86.8633 12.0216C86.5561 12.2802 86.2234 12.507 85.8704 12.6985C85.4429 12.9553 84.9788 13.1455 84.494 13.2626C84.3455 13.2926 84.1934 13.3002 84.0427 13.2852C83.9837 13.278 83.9269 13.2582 83.8763 13.227C83.8257 13.1959 83.7824 13.1541 83.7494 13.1046C83.6741 12.9866 83.5912 12.8735 83.5012 12.7662H83.5689C83.8159 12.7484 84.0591 12.6953 84.2909 12.6082C84.6533 12.4796 85.0012 12.3132 85.3289 12.1118C85.5545 11.9764 85.7576 11.841 85.9607 11.7056C86.1638 11.5702 86.3668 11.4123 86.5699 11.2544C86.7053 11.1415 86.8407 11.0062 86.9761 10.8934V10.081C86.8223 10.2648 86.6565 10.4382 86.4797 10.6C86.1061 10.9328 85.7062 11.2346 85.2838 11.5026C84.8935 11.7503 84.4774 11.9546 84.0427 12.1118C83.798 12.2042 83.5363 12.2427 83.2754 12.2246C83.2115 12.2253 83.1486 12.2089 83.0931 12.1772C83.0376 12.1454 82.9915 12.0995 82.9597 12.0441C82.8867 11.9501 82.8189 11.8522 82.7566 11.7508H82.7792C83.1537 11.7119 83.5194 11.6128 83.8623 11.4575C84.4933 11.1834 85.0852 10.8268 85.6223 10.3969C85.98 10.1103 86.3122 9.79324 86.6151 9.44923C86.8658 9.17082 87.0027 8.80843 86.9988 8.43385V8.02768C86.9976 7.89638 86.945 7.77079 86.8521 7.67794C86.7593 7.58509 86.6337 7.53241 86.5024 7.53125H86.4572C85.31 7.64393 84.2469 8.18351 83.4787 9.04307C82.9995 9.53531 82.623 10.118 82.3712 10.7572C82.1194 11.3964 81.9973 12.0793 82.012 12.7662V20.8668C82.0494 21.5438 82.0344 22.2228 81.9669 22.8975C81.9189 23.2288 81.8357 23.5541 81.7187 23.8678C81.6739 24.0477 81.5802 24.2117 81.4479 24.3416C82.9535 24.36 84.411 23.8124 85.5321 22.8073C86.0113 22.315 86.3878 21.7323 86.6396 21.0931C86.8914 20.4539 87.0135 19.771 86.9988 19.0842V11.9087C86.9535 11.9539 86.9084 11.9764 86.8633 12.0216ZM82.3504 10.9385C82.3715 10.7891 82.4172 10.6442 82.4858 10.5098C82.6418 10.2057 82.8393 9.92476 83.0724 9.67491C83.2981 9.42669 83.5237 9.20105 83.7718 8.97551C84.02 8.74997 84.2682 8.56934 84.5391 8.36628C84.6919 8.26041 84.8501 8.1625 85.013 8.07294C85.3394 7.881 85.6879 7.72946 86.0509 7.62166C86.1962 7.57329 86.3503 7.55788 86.5022 7.57654C86.5488 7.57932 86.5943 7.59168 86.6358 7.61284C86.6774 7.634 86.7141 7.66351 86.7438 7.69952C86.7734 7.73552 86.7953 7.77726 86.8081 7.82211C86.8208 7.86697 86.8242 7.91397 86.818 7.96019C86.7963 8.12683 86.7427 8.28773 86.6601 8.43405C86.5283 8.67697 86.3694 8.90408 86.1862 9.11098C85.9519 9.40168 85.6872 9.66644 85.3965 9.90071C85.3062 9.99096 85.1934 10.0587 85.1031 10.1489C84.8795 10.3345 84.6461 10.5077 84.4037 10.6679C83.995 10.9456 83.546 11.1587 83.0724 11.2997C82.935 11.348 82.7881 11.3635 82.6437 11.3448C82.5961 11.3454 82.5489 11.3365 82.5048 11.3186C82.4607 11.3007 82.4207 11.2741 82.387 11.2404C82.3534 11.2068 82.3268 11.1668 82.3089 11.1227C82.291 11.0786 82.2821 11.0314 82.2827 10.9838C82.3504 10.9838 82.3504 10.9611 82.3504 10.9385Z" fill="white"/>
<path d="M13.5971 18.3849C12.7916 18.0156 11.9424 17.7503 11.0699 17.5952C10.002 17.3661 8.96978 16.9942 8.00117 16.4895C7.26555 16.0906 6.63224 15.5268 6.15082 14.8423C5.71821 14.1708 5.49803 13.3845 5.51901 12.5859C5.50827 11.8739 5.66624 11.1694 5.97999 10.5302C6.29374 9.89092 6.75436 9.33502 7.32418 8.90794C8.69675 7.89109 10.379 7.38081 12.0852 7.46382C13.8998 7.3807 15.6915 7.89602 17.1847 8.93052C17.791 9.36168 18.2827 9.93452 18.617 10.5992C18.9513 11.2638 19.118 12.0001 19.1027 12.7439H16.4852C15.9246 12.7448 15.3715 12.6147 14.87 12.364C14.3686 12.1133 13.9327 11.7488 13.597 11.2998C13.3867 11.1198 13.1429 10.9832 12.8795 10.898C12.6161 10.8128 12.3385 10.7806 12.0626 10.8033C11.5845 10.7795 11.1157 10.9412 10.7539 11.2546C10.5866 11.3866 10.4511 11.5545 10.3574 11.7459C10.2636 11.9372 10.2141 12.1472 10.2124 12.3603C10.2135 12.5861 10.2746 12.8075 10.3897 13.0018C10.5047 13.1961 10.6693 13.3563 10.8667 13.466C11.5157 13.8066 12.2175 14.0355 12.9426 14.1429C13.7917 14.3024 14.6286 14.521 15.4473 14.7972C16.4702 15.0276 17.3837 15.6007 18.0363 16.4215C18.6888 17.2423 19.0412 18.2615 19.035 19.3101C19.0388 20.0292 18.8634 20.7379 18.5246 21.3721C18.1858 22.0064 17.6942 22.5462 17.0944 22.9429C15.6029 23.9179 13.8427 24.3994 12.0626 24.3193C10.804 24.3452 9.55542 24.0908 8.40723 23.5747C7.41005 23.1269 6.54679 22.427 5.90256 21.5439C5.33771 20.7519 5.02332 19.8087 5 18.8362H9.64835C9.624 19.1457 9.67729 19.4564 9.80337 19.74C9.92946 20.0237 10.1244 20.2715 10.3704 20.4608C10.9029 20.8187 11.5343 21.0002 12.1756 20.9798C12.718 21.019 13.258 20.8761 13.7099 20.5736C13.8743 20.4404 14.0063 20.2718 14.0962 20.0803C14.1861 19.8888 14.2315 19.6795 14.2289 19.468C14.2487 19.2443 14.1985 19.0199 14.0853 18.8259C13.9722 18.6319 13.8016 18.4778 13.5971 18.3849Z" fill="white"/>
</g>
</svg>